<svg xmlns="http://www.w3.org/2000/svg" width="160" height="58.073" viewBox="0 0 160 58.073">
  <g id="HK-blanco" transform="translate(-0.001 0)">
    <g id="Group_45" data-name="Group 45" transform="translate(0.001 0)">
      <rect id="Rectangle_14" data-name="Rectangle 14" width="160" height="58.073" fill="rgba(232,232,232,0)"/>
    </g>
    <g id="Houlak-texto-violeta" transform="translate(0.513 13.142)">
      <path id="Path_27" data-name="Path 27" d="M203017.266,110895.813v29.625h-7.906v-11.562h-10.75v11.563h-7.906v-29.625h7.906v11.125h10.75v-11.125Z" transform="translate(-202990.703 -110894.039)" fill="#fff"/>
      <path id="Path_28" data-name="Path 28" d="M203995.063,111125.188a12.915,12.915,0,0,1-6.234-1.516,10.92,10.92,0,0,1-4.359-4.227,11.924,11.924,0,0,1-1.609-6.141,11.775,11.775,0,0,1,1.609-6.094,10.857,10.857,0,0,1,4.313-4.211,14.032,14.032,0,0,1,12.594,0,10.825,10.825,0,0,1,4.359,4.188,12.046,12.046,0,0,1,1.547,6.117,12.2,12.2,0,0,1-1.547,6.141,11.021,11.021,0,0,1-4.359,4.227A13.048,13.048,0,0,1,203995.063,111125.188Zm0-6.383a4.238,4.238,0,0,0,3.3-1.469,6.013,6.013,0,0,0,1.25-4.031,5.887,5.887,0,0,0-1.25-3.977,4.237,4.237,0,0,0-3.3-1.437,4.1,4.1,0,0,0-3.25,1.438,5.661,5.661,0,0,0-1.266,3.977,5.782,5.782,0,0,0,1.266,4.031A4.1,4.1,0,0,0,203995.063,111118.8Z" transform="translate(-203952.453 -111093.43)" fill="#fff"/>
      <path id="Path_29" data-name="Path 29" d="M204914.3,111113.922v22.922h-7.219v-2.445a7.72,7.72,0,0,1-2.875,2.109,9.573,9.573,0,0,1-10.219-1.9c-1.656-1.758-2.484-4.375-2.484-7.875v-12.812h7.578v11.5a6.286,6.286,0,0,0,.891,3.766,3.213,3.213,0,0,0,2.7,1.188,3.691,3.691,0,0,0,2.922-1.328,6.163,6.163,0,0,0,1.125-4.086v-11.039Z" transform="translate(-204833.25 -111105.453)" fill="#fff"/>
      <rect id="Rectangle_15" data-name="Rectangle 15" width="7.576" height="31.389" transform="translate(85.896)" fill="#fff"/>
      <path id="Path_30" data-name="Path 30" d="M206171.656,111101.508c3.594,0,6.344.859,8.219,2.586,1.875,1.75,2.828,4.4,2.828,7.984v12.727h-7.062v-2.953c-1.062,2.234-3.219,3.336-6.391,3.336a9.72,9.72,0,0,1-4.344-.922,6.567,6.567,0,0,1-3.7-6.141,6.022,6.022,0,0,1,2.375-5.055c1.578-1.2,3.984-1.8,7.234-1.8h4.328c-.125-2.43-1.656-3.633-4.594-3.633a9.879,9.879,0,0,0-3.141.523,8.669,8.669,0,0,0-2.719,1.453l-2.547-5.453a13.678,13.678,0,0,1,4.359-1.969A19.651,19.651,0,0,1,206171.656,111101.508Zm-.266,18.6a4.273,4.273,0,0,0,2.328-.664,3.83,3.83,0,0,0,1.422-2v-1.977h-3.3c-2.2,0-3.281.773-3.281,2.32a1.988,1.988,0,0,0,.766,1.688A3.016,3.016,0,0,0,206171.391,111120.109Z" transform="translate(-206064.031 -111093.43)" fill="#fff"/>
      <path id="Path_31" data-name="Path 31" d="M207028.7,110861.2l-2.234,2.414v5.609h-7.578v-31.383h7.578v16.453l7.734-7.984h8.984l-8.984,9.813,9.719,13.1h-9.172Z" transform="translate(-206895.453 -110837.836)" fill="#fff"/>
      <path id="Path_32" data-name="Path 32" d="M207884.391,111573.461a4.282,4.282,0,0,1-3.219-1.352,5.173,5.173,0,0,1-.031-6.852,4.406,4.406,0,0,1,3.25-1.312,4.262,4.262,0,0,1,3.25,1.313,4.539,4.539,0,0,1,1.3,3.414,4.665,4.665,0,0,1-1.3,3.438A4.326,4.326,0,0,1,207884.391,111573.461Z" transform="translate(-207730.031 -111541.688)" fill="#fff"/>
    </g>
  </g>
</svg>
